<svg xmlns="http://www.w3.org/2000/svg" xmlns:xlink="http://www.w3.org/1999/xlink" class="pptx-geometry--custom"
    viewBox="0 0 603.5999999999999 132.85" preserveAspectRatio="xMidYMid meet">
    <defs>
        <path
            d="M 559.0625242718445 114.63669354838709 C 559.0625242718445 113.56532258064514 559.0625242718445 113.56532258064514 559.0625242718445 113.56532258064514 C 573.126990291262 113.56532258064514 588.363495145631 113.56532258064514 602.4279611650484 113.56532258064514 C 603.5999999999999 112.49395161290322 603.5999999999999 112.49395161290322 603.5999999999999 112.49395161290322 C 576.6431067961164 112.49395161290322 553.2023300970874 111.42258064516129 527.4174757281552 108.20846774193546 C 521.557281553398 107.13709677419354 521.557281553398 107.13709677419354 521.557281553398 107.13709677419354 C 522.7293203883494 106.06572580645161 522.7293203883494 106.06572580645161 522.7293203883494 106.06572580645161 C 542.6539805825241 106.06572580645161 560.234563106796 103.92298387096774 578.9871844660194 104.99435483870967 C 575.4710679611649 103.92298387096774 575.4710679611649 103.92298387096774 575.4710679611649 103.92298387096774 C 577.8151456310678 101.78024193548386 577.8151456310678 101.78024193548386 577.8151456310678 101.78024193548386 C 560.234563106796 101.78024193548386 542.6539805825241 102.8516129032258 526.2454368932039 100.70887096774193 C 526.2454368932039 99.6375 526.2454368932039 99.6375 526.2454368932039 99.6375 C 547.34213592233 99.6375 568.4388349514562 100.70887096774193 589.5355339805824 99.6375 C 591.8796116504852 98.56612903225806 593.0516504854368 96.42338709677418 595.3957281553397 97.4947580645161 C 596.5677669902913 97.4947580645161 596.5677669902913 96.42338709677418 597.7398058252426 95.35201612903226 C 582.5033009708737 94.28064516129032 582.5033009708737 94.28064516129032 582.5033009708737 94.28064516129032 C 576.6431067961164 92.13790322580644 569.6108737864075 95.35201612903226 564.9227184466018 91.06653225806451 C 544.998058252427 91.06653225806451 525.0733980582523 88.92379032258063 506.320776699029 87.8524193548387 C 506.320776699029 86.78104838709677 506.320776699029 86.78104838709677 506.320776699029 86.78104838709677 C 533.2776699029125 87.8524193548387 561.4066019417475 86.78104838709677 588.363495145631 87.8524193548387 C 556.7184466019415 84.63830645161289 556.7184466019415 84.63830645161289 556.7184466019415 84.63830645161289 C 564.9227184466018 83.56693548387096 573.126990291262 81.42419354838708 582.5033009708737 83.56693548387096 C 586.019417475728 82.49556451612904 589.5355339805824 82.49556451612904 593.0516504854368 82.49556451612904 C 594.2236893203882 82.49556451612904 594.2236893203882 80.35282258064515 596.5677669902913 80.35282258064515 C 596.5677669902913 79.28145161290323 596.5677669902913 79.28145161290323 596.5677669902913 79.28145161290323 C 576.6431067961164 78.21008064516128 576.6431067961164 78.21008064516128 576.6431067961164 78.21008064516128 C 575.4710679611649 77.13870967741934 575.4710679611649 77.13870967741934 575.4710679611649 77.13870967741934 C 580.1592233009708 76.06733870967741 587.1914563106794 77.13870967741934 591.8796116504852 74.99596774193547 C 586.019417475728 74.99596774193547 578.9871844660194 73.92459677419355 574.2990291262134 74.99596774193547 C 569.6108737864075 72.8532258064516 560.234563106796 74.99596774193547 557.8904854368931 70.71048387096774 C 541.4819417475727 68.56774193548387 522.7293203883494 68.56774193548387 505.14873786407753 66.425 C 506.320776699029 65.35362903225806 502.80466019417463 63.2108870967742 506.320776699029 63.2108870967742 C 527.4174757281552 65.35362903225806 527.4174757281552 65.35362903225806 527.4174757281552 65.35362903225806 C 544.998058252427 65.35362903225806 564.9227184466018 67.49637096774194 580.1592233009708 64.28225806451613 C 541.4819417475727 64.28225806451613 506.320776699029 54.63991935483871 468.8155339805824 53.56854838709677 C 455.92310679611643 50.354435483870965 440.6866019417475 51.4258064516129 427.79417475728144 49.28306451612903 C 457.09514563106785 49.28306451612903 486.3961165048543 53.56854838709677 515.6970873786406 54.63991935483871 C 513.3530097087378 54.63991935483871 513.3530097087378 54.63991935483871 513.3530097087378 54.63991935483871 C 512.1809708737864 51.4258064516129 518.0411650485436 54.63991935483871 520.3852427184465 52.497177419354834 C 515.6970873786406 50.354435483870965 512.1809708737864 54.63991935483871 507.49281553398043 53.56854838709677 C 506.320776699029 52.497177419354834 502.80466019417463 53.56854838709677 503.9766990291261 51.4258064516129 C 502.80466019417463 51.4258064516129 501.6326213592232 51.4258064516129 501.6326213592232 50.354435483870965 C 505.14873786407753 48.21169354838709 509.83689320388345 53.56854838709677 509.83689320388345 50.354435483870965 C 501.6326213592232 49.28306451612903 489.91223300970864 47.14032258064516 481.7079611650484 47.14032258064516 C 481.7079611650484 44.997580645161285 484.0520388349514 46.06895161290322 485.22407766990284 44.997580645161285 C 475.8477669902912 43.92620967741935 465.2994174757281 43.92620967741935 454.75106796116495 41.78346774193548 C 464.1273786407766 39.64072580645161 477.01980582524266 43.92620967741935 486.3961165048543 42.854838709677416 C 465.2994174757281 39.64072580645161 443.0306796116503 39.64072580645161 423.10601941747564 35.35524193548387 C 421.93398058252416 34.28387096774193 421.93398058252416 34.28387096774193 421.93398058252416 34.28387096774193 C 428.966213592233 35.35524193548387 437.1704854368931 33.2125 444.20271844660186 35.35524193548387 C 443.0306796116503 36.4266129032258 443.0306796116503 36.4266129032258 443.0306796116503 36.4266129032258 C 444.20271844660186 35.35524193548387 444.20271844660186 35.35524193548387 444.20271844660186 35.35524193548387 C 466.4714563106795 35.35524193548387 495.77242718446587 38.56935483870967 520.3852427184465 39.64072580645161 C 508.66485436893186 35.35524193548387 494.60038834951445 36.4266129032258 481.7079611650484 33.2125 C 485.22407766990284 31.06975806451613 491.08427184466007 32.141129032258064 495.77242718446587 33.2125 C 512.1809708737864 34.28387096774193 533.2776699029125 37.49798387096774 550.8582524271843 37.49798387096774 C 547.34213592233 36.4266129032258 537.9658252427183 34.28387096774193 532.105631067961 33.2125 C 528.5895145631067 34.28387096774193 526.2454368932039 31.06975806451613 522.7293203883494 33.2125 C 522.7293203883494 33.2125 522.7293203883494 33.2125 522.7293203883494 32.141129032258064 C 521.557281553398 34.28387096774193 519.2132038834951 33.2125 516.8691262135922 32.141129032258064 C 516.8691262135922 32.141129032258064 516.8691262135922 32.141129032258064 518.0411650485436 31.06975806451613 C 516.8691262135922 32.141129032258064 515.6970873786406 31.06975806451613 514.5250485436892 31.06975806451613 C 516.8691262135922 32.141129032258064 516.8691262135922 32.141129032258064 516.8691262135922 32.141129032258064 C 515.6970873786406 33.2125 515.6970873786406 33.2125 515.6970873786406 33.2125 C 513.3530097087378 32.141129032258064 511.00893203883487 33.2125 509.83689320388345 31.06975806451613 C 512.1809708737864 27.855645161290322 520.3852427184465 32.141129032258064 523.9013592233008 31.06975806451613 C 489.91223300970864 24.641532258064515 453.5790291262135 21.427419354838708 418.41786407766983 18.2133064516129 C 281.28932038834944 10.713709677419354 281.28932038834944 10.713709677419354 281.28932038834944 10.713709677419354 C 241.44 7.499596774193548 241.44 7.499596774193548 241.44 7.499596774193548 C 244.95611650485432 7.499596774193548 244.95611650485432 7.499596774193548 244.95611650485432 7.499596774193548 C 293.009708737864 8.570967741935483 342.2353398058252 10.713709677419354 387.94485436893194 12.856451612903225 C 360.9879611650485 9.642338709677418 336.3751456310679 8.570967741935483 310.59029126213585 6.4282258064516125 C 260.19262135922327 4.285483870967742 208.6229126213592 2.142741935483871 159.39728155339802 3.2141129032258062 C 155.88116504854366 2.142741935483871 151.1930097087378 0 147.67689320388348 2.142741935483871 C 140.64466019417472 1.0713709677419354 132.44038834951454 2.142741935483871 126.58019417475725 1.0713709677419354 C 124.23611650485432 4.285483870967742 118.37592233009705 2.142741935483871 114.85980582524269 2.142741935483871 C 98.4512621359223 2.142741935483871 80.87067961165046 1.0713709677419354 64.46213592233008 3.2141129032258062 C 62.11805825242716 4.285483870967742 56.25786407766989 2.142741935483871 55.085825242718435 3.2141129032258062 C 58.6019417475728 5.356854838709677 64.46213592233008 4.285483870967742 69.15029126213592 5.356854838709677 C 69.15029126213592 6.4282258064516125 69.15029126213592 6.4282258064516125 69.15029126213592 6.4282258064516125 C 64.46213592233008 5.356854838709677 59.77398058252426 7.499596774193548 56.25786407766989 5.356854838709677 C 50.39766990291261 6.4282258064516125 43.36543689320388 3.2141129032258062 39.849320388349504 7.499596774193548 C 32.81708737864077 9.642338709677418 24.612815533980577 9.642338709677418 18.752621359223294 16.070564516129032 C 19.924660194174752 17.141935483870967 19.924660194174752 17.141935483870967 19.924660194174752 17.141935483870967 C 26.95689320388349 22.498790322580643 32.81708737864077 17.141935483870967 39.849320388349504 21.427419354838708 C 33.98912621359223 22.498790322580643 26.95689320388349 21.427419354838708 21.096699029126206 21.427419354838708 C 17.58058252427184 22.498790322580643 12.892427184466017 21.427419354838708 11.720388349514561 23.57016129032258 C 19.924660194174752 23.57016129032258 28.128932038834947 25.71290322580645 35.16116504854368 27.855645161290322 C 33.98912621359223 28.927016129032253 33.98912621359223 29.99838709677419 35.16116504854368 32.141129032258064 C 31.645048543689313 32.141129032258064 25.784854368932034 28.927016129032253 22.26873786407766 34.28387096774193 C 41.02135922330096 35.35524193548387 41.02135922330096 35.35524193548387 41.02135922330096 35.35524193548387 C 41.02135922330096 36.4266129032258 42.19339805825241 37.49798387096774 41.02135922330096 37.49798387096774 C 33.98912621359223 35.35524193548387 29.3009708737864 41.78346774193548 25.784854368932034 40.71209677419354 C 25.784854368932034 41.78346774193548 25.784854368932034 41.78346774193548 25.784854368932034 41.78346774193548 C 24.612815533980577 44.997580645161285 19.924660194174752 42.854838709677416 17.58058252427184 43.92620967741935 C 24.612815533980577 44.997580645161285 24.612815533980577 44.997580645161285 24.612815533980577 44.997580645161285 C 21.096699029126206 46.06895161290322 18.752621359223294 48.21169354838709 15.23650485436893 47.14032258064516 C 16.408543689320386 48.21169354838709 17.58058252427184 47.14032258064516 17.58058252427184 48.21169354838709 C 16.408543689320386 49.28306451612903 16.408543689320386 49.28306451612903 16.408543689320386 49.28306451612903 C 17.58058252427184 49.28306451612903 19.924660194174752 50.354435483870965 18.752621359223294 51.4258064516129 C 22.26873786407766 52.497177419354834 24.612815533980577 52.497177419354834 26.95689320388349 53.56854838709677 C 31.645048543689313 53.56854838709677 36.33320388349514 54.63991935483871 38.67728155339805 57.85403225806451 C 32.81708737864077 58.92540322580645 28.128932038834947 56.78266129032257 22.26873786407766 56.78266129032257 C 24.612815533980577 54.63991935483871 26.95689320388349 56.78266129032257 29.3009708737864 55.711290322580645 C 29.3009708737864 55.711290322580645 29.3009708737864 55.711290322580645 29.3009708737864 55.711290322580645 C 25.784854368932034 55.711290322580645 19.924660194174752 53.56854838709677 18.752621359223294 56.78266129032257 C 15.23650485436893 56.78266129032257 8.204271844660193 55.711290322580645 5.8601941747572805 59.99677419354838 C 7.032233009708737 62.13951612903226 8.204271844660193 61.06814516129031 10.548349514563103 61.06814516129031 C 12.892427184466017 65.35362903225806 19.924660194174752 62.13951612903226 23.440776699029122 65.35362903225806 C 19.924660194174752 67.49637096774194 19.924660194174752 67.49637096774194 19.924660194174752 67.49637096774194 C 18.752621359223294 68.56774193548387 21.096699029126206 70.71048387096774 19.924660194174752 71.78185483870968 C 4.6881553398058236 69.6391129032258 4.6881553398058236 69.6391129032258 4.6881553398058236 69.6391129032258 C 4.6881553398058236 69.6391129032258 4.6881553398058236 69.6391129032258 4.6881553398058236 69.6391129032258 C 0 69.6391129032258 0 69.6391129032258 0 69.6391129032258 C 0 70.71048387096774 3.5161165048543683 72.8532258064516 1.1720388349514559 73.92459677419355 C 1.1720388349514559 73.92459677419355 1.1720388349514559 73.92459677419355 1.1720388349514559 73.92459677419355 C 2.3440776699029118 73.92459677419355 2.3440776699029118 73.92459677419355 2.3440776699029118 73.92459677419355 C 3.5161165048543683 73.92459677419355 3.5161165048543683 74.99596774193547 4.6881553398058236 74.99596774193547 C 4.6881553398058236 76.06733870967741 4.6881553398058236 76.06733870967741 3.5161165048543683 76.06733870967741 C 4.6881553398058236 79.28145161290323 10.548349514563103 76.06733870967741 10.548349514563103 79.28145161290323 C 16.408543689320386 80.35282258064515 22.26873786407766 80.35282258064515 25.784854368932034 82.49556451612904 C 24.612815533980577 83.56693548387096 22.26873786407766 82.49556451612904 19.924660194174752 83.56693548387096 C 21.096699029126206 87.8524193548387 31.645048543689313 85.70967741935483 31.645048543689313 92.13790322580644 C 24.612815533980577 92.13790322580644 24.612815533980577 92.13790322580644 24.612815533980577 92.13790322580644 C 24.612815533980577 92.13790322580644 22.26873786407766 94.28064516129032 24.612815533980577 95.35201612903226 C 24.612815533980577 95.35201612903226 24.612815533980577 95.35201612903226 23.440776699029122 96.42338709677418 C 28.128932038834947 97.4947580645161 31.645048543689313 98.56612903225806 36.33320388349514 99.6375 C 33.98912621359223 101.78024193548386 30.47300970873786 98.56612903225806 29.3009708737864 100.70887096774193 C 22.26873786407766 98.56612903225806 12.892427184466017 98.56612903225806 7.032233009708737 96.42338709677418 C 7.032233009708737 103.92298387096774 7.032233009708737 103.92298387096774 7.032233009708737 103.92298387096774 C 11.720388349514561 104.99435483870967 15.23650485436893 108.20846774193546 19.924660194174752 108.20846774193546 C 25.784854368932034 107.13709677419354 23.440776699029122 112.49395161290322 26.95689320388349 112.49395161290322 C 24.612815533980577 113.56532258064514 24.612815533980577 113.56532258064514 24.612815533980577 113.56532258064514 C 49.22563106796115 123.20766129032256 80.87067961165046 124.27903225806452 108.99961165048542 126.4217741935484 C 119.54796116504852 126.4217741935484 130.09631067961163 126.4217741935484 140.64466019417472 126.4217741935484 C 240.2679611650485 128.56451612903226 240.2679611650485 128.56451612903226 240.2679611650485 128.56451612903226 C 324.6547572815534 132.85 324.6547572815534 132.85 324.6547572815534 132.85 C 276.6011650485437 128.56451612903226 220.34330097087374 126.4217741935484 166.42951456310675 126.4217741935484 C 165.25747572815533 125.35040322580645 165.25747572815533 125.35040322580645 165.25747572815533 125.35040322580645 C 184.0100970873786 124.27903225806452 202.7627184466019 125.35040322580645 222.68737864077664 125.35040322580645 C 348.0955339805825 131.77862903225804 348.0955339805825 131.77862903225804 348.0955339805825 131.77862903225804 C 326.9988349514562 128.56451612903226 303.55805825242714 128.56451612903226 282.4613592233009 127.49314516129031 C 205.1067961165048 121.0649193548387 132.44038834951454 127.49314516129031 56.25786407766989 116.77943548387097 C 57.429902912621344 115.70806451612901 57.429902912621344 115.70806451612901 57.429902912621344 115.70806451612901 C 98.4512621359223 118.92217741935484 98.4512621359223 118.92217741935484 98.4512621359223 118.92217741935484 C 172.28970873786403 117.8508064516129 249.64427184466015 118.92217741935484 323.48271844660184 124.27903225806452 C 326.9988349514562 122.13629032258062 334.031067961165 122.13629032258062 337.5471844660193 124.27903225806452 C 341.0633009708737 122.13629032258062 351.6116504854368 123.20766129032256 355.12776699029115 125.35040322580645 C 355.12776699029115 124.27903225806452 355.12776699029115 124.27903225806452 355.12776699029115 124.27903225806452 C 393.8050485436892 126.4217741935484 393.8050485436892 126.4217741935484 393.8050485436892 126.4217741935484 C 501.6326213592232 132.85 501.6326213592232 132.85 501.6326213592232 132.85 C 511.00893203883487 131.77862903225804 511.00893203883487 131.77862903225804 511.00893203883487 131.77862903225804 C 515.6970873786406 131.77862903225804 520.3852427184465 131.77862903225804 523.9013592233008 130.7072580645161 C 514.5250485436892 128.56451612903226 502.80466019417463 128.56451612903226 492.25631067961154 128.56451612903226 C 491.08427184466007 127.49314516129031 491.08427184466007 127.49314516129031 491.08427184466007 127.49314516129031 C 499.2885436893203 125.35040322580645 508.66485436893186 128.56451612903226 515.6970873786406 127.49314516129031 C 533.2776699029125 127.49314516129031 553.2023300970874 129.63588709677418 566.0947572815534 123.20766129032256 C 550.8582524271843 124.27903225806452 550.8582524271843 124.27903225806452 550.8582524271843 124.27903225806452 C 547.34213592233 124.27903225806452 542.6539805825241 124.27903225806452 540.3099029126212 123.20766129032256 C 537.9658252427183 119.99354838709677 542.6539805825241 121.0649193548387 543.8260194174757 119.99354838709677 C 529.7615533980581 118.92217741935484 529.7615533980581 118.92217741935484 529.7615533980581 118.92217741935484 C 522.7293203883494 118.92217741935484 511.00893203883487 119.99354838709677 506.320776699029 114.63669354838709 C 507.49281553398043 114.63669354838709 511.00893203883487 115.70806451612901 512.1809708737864 115.70806451612901 C 518.0411650485436 112.49395161290322 523.9013592233008 115.70806451612901 528.5895145631067 114.63669354838709 C 516.8691262135922 113.56532258064514 506.320776699029 111.42258064516129 494.60038834951445 109.27983870967742 C 513.3530097087378 110.35120967741936 534.449708737864 111.42258064516129 553.2023300970874 113.56532258064514 C 552.0302912621357 114.63669354838709 552.0302912621357 114.63669354838709 552.0302912621357 114.63669354838709 L 559.0625242718445 114.63669354838709 Z M 506.320776699029 28.927016129032253 C 507.49281553398043 28.927016129032253 507.49281553398043 29.99838709677419 508.66485436893186 29.99838709677419 C 508.66485436893186 29.99838709677419 508.66485436893186 28.927016129032253 508.66485436893186 28.927016129032253 C 508.66485436893186 28.927016129032253 508.66485436893186 29.99838709677419 508.66485436893186 29.99838709677419 C 508.66485436893186 29.99838709677419 507.49281553398043 28.927016129032253 506.320776699029 28.927016129032253 C 505.14873786407753 28.927016129032253 505.14873786407753 28.927016129032253 503.9766990291261 29.99838709677419 C 505.14873786407753 31.06975806451613 505.14873786407753 31.06975806451613 505.14873786407753 31.06975806451613 C 502.80466019417463 31.06975806451613 502.80466019417463 31.06975806451613 502.80466019417463 31.06975806451613 C 502.80466019417463 28.927016129032253 505.14873786407753 28.927016129032253 506.320776699029 28.927016129032253 Z M 496.9444660194173 27.855645161290322 C 498.11650485436877 31.06975806451613 493.42834951456297 28.927016129032253 492.25631067961154 27.855645161290322 L 496.9444660194173 27.855645161290322 Z M 7.032233009708737 76.06733870967741 C 9.376310679611647 76.06733870967741 9.376310679611647 76.06733870967741 9.376310679611647 76.06733870967741 C 9.376310679611647 76.06733870967741 7.032233009708737 78.21008064516128 7.032233009708737 76.06733870967741 Z M 450.06291262135915 115.70806451612901 C 451.23495145631057 115.70806451612901 451.23495145631057 115.70806451612901 451.23495145631057 115.70806451612901 C 489.91223300970864 118.92217741935484 489.91223300970864 118.92217741935484 489.91223300970864 118.92217741935484 L 450.06291262135915 115.70806451612901 Z M 534.449708737864 121.0649193548387 C 534.449708737864 119.99354838709677 535.6217475728155 119.99354838709677 536.7937864077669 119.99354838709677 C 536.7937864077669 121.0649193548387 535.6217475728155 121.0649193548387 534.449708737864 121.0649193548387 C 534.449708737864 121.0649193548387 533.2776699029125 121.0649193548387 533.2776699029125 121.0649193548387 C 533.2776699029125 121.0649193548387 534.449708737864 121.0649193548387 534.449708737864 121.0649193548387 Z M 499.2885436893203 115.70806451612901 C 503.9766990291261 116.77943548387097 503.9766990291261 116.77943548387097 503.9766990291261 116.77943548387097 C 498.11650485436877 116.77943548387097 498.11650485436877 116.77943548387097 498.11650485436877 116.77943548387097 L 499.2885436893203 115.70806451612901 Z"
            vector-effect="non-scaling-stroke" id="path_33--37785150"></path>
    </defs>
    <g>
        <g id="el_31--377799472">
            <use xlink:href="#path_33--37785150" fill="rgba(0,0,0,1)" stroke="none"></use>
        </g>
    </g>
</svg>